<svg width="175" height="43" viewBox="0 0 175 43" fill="none" xmlns="http://www.w3.org/2000/svg">
<path fill-rule="evenodd" clip-rule="evenodd" d="M24.8147 16.1019L23.9275 16.9572L23.0352 16.1019C21.0778 14.2262 17.8272 14.0725 15.663 15.7511C13.4503 17.4663 13.1904 20.4405 15.0101 22.4998C17.6132 25.4443 20.597 28.3521 23.9275 30.6382C27.3422 28.2945 30.3903 25.2998 33.0392 22.2796C34.7594 20.319 34.4044 17.4732 32.3066 15.8428L32.2071 15.7671C30.0223 14.0725 26.7723 14.2262 24.8147 16.1019Z" fill="#4A46FF"/>
<path fill-rule="evenodd" clip-rule="evenodd" d="M37.8244 0.558594C43.2057 0.558594 47.5681 4.4728 47.5681 9.30121V14.9941H41.6766V9.30121C41.6766 7.3923 39.952 5.84483 37.8244 5.84483H31.4797V0.558594H37.8244Z" fill="#4A46FF"/>
<path fill-rule="evenodd" clip-rule="evenodd" d="M47.5681 33.6986C47.5681 38.5271 43.2057 42.4412 37.8244 42.4412H31.4797V37.155H37.8244C39.952 37.155 41.6766 35.6075 41.6766 33.6986V28.0059H47.5681V33.6986Z" fill="#4A46FF"/>
<path fill-rule="evenodd" clip-rule="evenodd" d="M10.6326 0.558594C5.25128 0.558594 0.888916 4.4728 0.888916 9.30121V14.9941H6.78042V9.30121C6.78042 7.3923 8.50507 5.84483 10.6326 5.84483H16.9773V0.558594H10.6326Z" fill="#4A46FF"/>
<path fill-rule="evenodd" clip-rule="evenodd" d="M0.888917 33.6986C0.888917 38.5271 5.25128 42.4412 10.6326 42.4412H16.9773V37.155H10.6326C8.50507 37.155 6.78042 35.6075 6.78042 33.6986V28.0059H0.888916L0.888917 33.6986Z" fill="#4A46FF"/>
<path fill-rule="evenodd" clip-rule="evenodd" d="M70.0011 42.7612L74.7431 33.5423L86.4379 10.9014H79.9699L73.0441 25.3753L66.4626 10.9014H60.0157L69.7747 31.2624L63.5231 42.7612H70.0011ZM94.7576 32.5966L94.7615 32.5984L94.7652 32.6004C96.6633 33.6287 98.7748 34.1403 101.085 34.1403C103.034 34.1403 104.779 33.7904 106.305 33.0732L106.308 33.072L106.31 33.0709C107.126 32.6791 107.855 32.2096 108.495 31.6622V33.6843H114.315V10.9014H108.495V12.9644C107.837 12.4112 107.09 11.9426 106.257 11.5592C104.732 10.8119 103.003 10.4453 101.085 10.4453C98.7393 10.4453 96.6076 10.9731 94.7069 12.0349L94.7048 12.0362L94.7026 12.0375C92.8486 13.0931 91.371 14.5167 90.2721 16.298L90.2701 16.3014L90.2681 16.3047C89.198 18.0968 88.6693 20.1047 88.6693 22.3157C88.6693 24.5268 89.198 26.5346 90.2681 28.3267L90.2701 28.33L90.2721 28.3334C91.3725 30.1173 92.8694 31.5414 94.7576 32.5966ZM108.8 22.3157C108.8 24.3586 108.147 25.9978 106.876 27.2785C105.617 28.5169 103.962 29.1464 101.848 29.1464C100.424 29.1464 99.181 28.8494 98.101 28.2683C97.0126 27.6821 96.1589 26.89 95.5341 25.884C94.9451 24.851 94.6416 23.651 94.6416 22.2701C94.6416 20.9188 94.9452 19.7496 95.5341 18.7474C96.1621 17.7058 97.0017 16.8996 98.0539 16.3158C99.1327 15.7357 100.374 15.4393 101.797 15.4393C103.221 15.4393 104.444 15.7364 105.486 16.3138L105.492 16.3169L105.498 16.3201C106.539 16.87 107.338 17.6521 107.897 18.6829L107.901 18.6911L107.906 18.6993C108.494 19.6989 108.8 20.8981 108.8 22.3157ZM122.324 0V33.6843H128.144V0H122.324ZM136.135 0V33.6843H141.954V0H136.135ZM154.509 32.5966L154.513 32.5984L154.516 32.6004C156.415 33.6287 158.526 34.1403 160.837 34.1403C162.785 34.1403 164.532 33.7904 166.056 33.0732L166.059 33.072L166.061 33.0709C166.878 32.6791 167.607 32.2096 168.245 31.6622V33.6843H174.066V10.9014H168.245V12.9644C167.587 12.4112 166.841 11.9425 166.008 11.5592C164.483 10.8118 162.755 10.4453 160.837 10.4453C158.491 10.4453 156.359 10.9731 154.458 12.0349L154.456 12.0362L154.454 12.0375C152.6 13.0931 151.122 14.5167 150.023 16.298L150.021 16.3014L150.019 16.3047C148.949 18.0968 148.42 20.1047 148.42 22.3157C148.42 24.5268 148.949 26.5346 150.019 28.3267L150.021 28.33L150.023 28.3334C151.124 30.1173 152.62 31.5414 154.509 32.5966ZM154.393 22.2701C154.393 23.651 154.696 24.851 155.285 25.884C155.91 26.89 156.764 27.6821 157.853 28.2683C158.932 28.8494 160.175 29.1464 161.599 29.1464C163.713 29.1464 165.368 28.5169 166.628 27.2783C167.899 25.9977 168.552 24.3585 168.552 22.3157C168.552 20.8981 168.245 19.6989 167.658 18.6993L167.653 18.6911L167.648 18.6829C167.09 17.6521 166.291 16.87 165.249 16.3201L165.243 16.3169L165.238 16.3138C164.194 15.7364 162.973 15.4393 161.548 15.4393C160.125 15.4393 158.884 15.7357 157.805 16.3158C156.753 16.8997 155.913 17.7061 155.285 18.7477C154.696 19.7498 154.393 20.9189 154.393 22.2701Z" fill="#4A46FF"/>
</svg>
